<?xml version="1.0" encoding="UTF-8"?>
<svg id="Calque_2" data-name="Calque 2" xmlns="http://www.w3.org/2000/svg" viewBox="0 0 22.68 21.08">
  <defs>
    <style>
      .cls-1 {
        fill: #fff;
        stroke-width: 0px;
      }
    </style>
  </defs>
  <g id="Calque_1-2" data-name="Calque 1">
    <path class="cls-1" d="M22.68,9.58h-3.87c-.09-2.36-.49-4.51-1.15-6.17-.38-.94-.83-1.75-1.41-2.36s-1.34-1.05-2.19-1.05h-5.75c-1.68,0-2.93,1.58-3.74,3.83h2.05c.54-1.21,1.16-1.92,1.69-1.92h2.92c-.29.45-.55.94-.77,1.49-.76,1.89-1.19,4.38-1.19,7.13s.43,5.24,1.19,7.13c.22.56.48,1.04.77,1.49h-2.92c-.53,0-1.15-.7-1.69-1.92h-2.05c.81,2.25,2.06,3.83,3.74,3.83h5.75c.85,0,1.61-.44,2.19-1.05s1.03-1.41,1.41-2.36c.67-1.66,1.06-3.81,1.15-6.17h3.87v-1.92ZM16.89,9.58h-2.84c-.53,0-.96.43-.96.96s.43.96.96.96h2.84c-.09,2.15-.47,4.09-1.02,5.46-.32.79-.68,1.39-1.02,1.75s-.59.45-.8.45-.46-.09-.8-.45-.71-.96-1.02-1.75c-.63-1.58-1.06-3.88-1.06-6.42s.42-4.84,1.06-6.42c.32-.79.68-1.39,1.02-1.75s.59-.45.8-.45.46.09.8.45.71.96,1.02,1.75c.55,1.37.93,3.31,1.02,5.46ZM6.41,12.87v2.25H0V5.97h2.81v6.9h3.61Z"/>
  </g>
</svg>