<?xml version="1.0" encoding="UTF-8"?>
<svg id="Calque_2" data-name="Calque 2" xmlns="http://www.w3.org/2000/svg" viewBox="0 0 22.68 19.2">
  <defs>
    <style>
      .cls-1 {
        fill: #fff;
        stroke-width: 0px;
      }
    </style>
  </defs>
  <g id="Calque_1-2" data-name="Calque 1">
    <path class="cls-1" d="M0,10.47h3.52c.08,2.15.44,4.1,1.05,5.62.34.86.76,1.59,1.28,2.15s1.22.96,1.99.96h5.24c1.53,0,2.67-1.44,3.41-3.49h-1.87c-.49,1.1-1.06,1.75-1.54,1.75h-2.66c.26-.41.5-.85.7-1.36.69-1.72,1.08-3.99,1.08-6.49s-.4-4.77-1.08-6.49c-.2-.51-.44-.95-.7-1.36h2.66c.48,0,1.05.64,1.54,1.75h1.87c-.73-2.05-1.88-3.49-3.41-3.49h-5.24c-.78,0-1.47.4-1.99.96s-.94,1.29-1.28,2.15c-.61,1.52-.97,3.47-1.05,5.62H0v1.75ZM5.27,10.47h2.58c.48,0,.87-.39.87-.87s-.39-.87-.87-.87h-2.58c.08-1.96.43-3.72.93-4.97.29-.72.62-1.27.93-1.6s.54-.41.73-.41.42.09.73.41.64.88.93,1.6c.57,1.44.96,3.53.96,5.85s-.39,4.41-.96,5.85c-.29.72-.62,1.27-.93,1.6s-.54.41-.73.41-.42-.09-.73-.41-.64-.88-.93-1.6c-.5-1.25-.84-3.01-.93-4.97ZM22.68,13.42h-2.6l-1.12-2.93h-.74v2.93h-2.35v-7.65h4c.88,0,1.57.21,2.05.62s.73.96.73,1.63c0,.44-.09.83-.27,1.17s-.54.64-1.09.89l1.38,3.33ZM18.22,8.86h1c.3,0,.53-.06.71-.18s.27-.3.27-.54c0-.49-.3-.73-.9-.73h-1.08v1.46Z"/>
  </g>
</svg>