<?xml version="1.0" encoding="UTF-8"?>
<svg id="Calque_2" data-name="Calque 2" xmlns="http://www.w3.org/2000/svg" viewBox="0 0 14.17 18.9">
  <defs>
    <style>
      .cls-1 {
        fill: #fff;
        stroke-width: 0px;
      }
    </style>
  </defs>
  <g id="Calque_1-2" data-name="Calque 1">
    <path class="cls-1" d="M4.72,0c-.86,0-1.57.71-1.57,1.57v9.45c0,.86.71,1.57,1.57,1.57h4.72c.86,0,1.57-.71,1.57-1.57V1.57c0-.86-.71-1.57-1.57-1.57h-4.72ZM4.72,1.57h4.72v9.45h-4.72V1.57ZM0,7.87v3.15c0,2.6,2.13,4.72,4.72,4.72h1.57v1.57h-3.15v1.57h7.87v-1.57h-3.15v-1.57h1.57c2.6,0,4.72-2.13,4.72-4.72v-3.15h-1.57v3.15c0,1.75-1.4,3.15-3.15,3.15h-4.72c-1.75,0-3.15-1.4-3.15-3.15v-3.15H0Z"/>
  </g>
</svg>