<?xml version="1.0" encoding="UTF-8"?>
<svg id="Calque_2" data-name="Calque 2" xmlns="http://www.w3.org/2000/svg" viewBox="0 0 17.01 17.01">
  <defs>
    <style>
      .cls-1 {
        fill: #fff;
        stroke-width: 0px;
      }
    </style>
  </defs>
  <g id="Calque_1-2" data-name="Calque 1">
    <path class="cls-1" d="M0,0v17.01h17.01V0H0ZM1.55,1.55h13.92v13.92H1.55V1.55ZM3.09,2.32c-.43,0-.77.35-.77.77s.35.77.77.77.77-.35.77-.77-.35-.77-.77-.77ZM13.92,2.32c-.43,0-.77.35-.77.77s.35.77.77.77.77-.35.77-.77-.35-.77-.77-.77ZM8.5,3.09c-2.98,0-5.41,2.43-5.41,5.41s2.43,5.41,5.41,5.41,5.41-2.43,5.41-5.41-2.43-5.41-5.41-5.41ZM8.5,4.64c2.14,0,3.87,1.72,3.87,3.87s-1.72,3.87-3.87,3.87-3.87-1.72-3.87-3.87,1.72-3.87,3.87-3.87ZM8.5,6.96c-.85,0-1.55.69-1.55,1.55s.69,1.55,1.55,1.55,1.55-.69,1.55-1.55-.69-1.55-1.55-1.55ZM3.09,13.14c-.43,0-.77.35-.77.77s.35.77.77.77.77-.35.77-.77-.35-.77-.77-.77ZM13.92,13.14c-.43,0-.77.35-.77.77s.35.77.77.77.77-.35.77-.77-.35-.77-.77-.77Z"/>
  </g>
</svg>