<?xml version="1.0" encoding="UTF-8"?>
<svg id="Calque_2" data-name="Calque 2" xmlns="http://www.w3.org/2000/svg" viewBox="0 0 20.55 18.18">
  <defs>
    <style>
      .cls-1 {
        fill: #fff;
        stroke-width: 0px;
      }
    </style>
  </defs>
  <g id="Calque_1-2" data-name="Calque 1">
    <path class="cls-1" d="M10.27,0c-.87,0-1.58.71-1.58,1.58,0,.41.16.8.44,1.1L2.02,15.08c-.14-.04-.29-.06-.44-.06-.87,0-1.58.71-1.58,1.58s.71,1.58,1.58,1.58c.56,0,1.08-.3,1.37-.79h14.65c.28.49.8.79,1.37.79.87,0,1.58-.71,1.58-1.58s-.71-1.58-1.58-1.58c-.15,0-.29.02-.44.06L11.41,2.68c.61-.63.59-1.63-.03-2.23C11.08.16,10.68,0,10.27,0ZM9.48,5.25v5.23c-.5.29-.8.82-.79,1.39l-4.61,2.76,5.4-9.39ZM11.06,5.25l5.4,9.39-4.61-2.76c0-.57-.29-1.11-.79-1.39v-5.23ZM9.51,13.23c.23.13.5.2.77.2.27,0,.53-.07.77-.2l4.28,2.57H5.22l4.28-2.57Z"/>
  </g>
</svg>