<?xml version="1.0" encoding="UTF-8"?>
<svg id="Calque_2" data-name="Calque 2" xmlns="http://www.w3.org/2000/svg" viewBox="0 0 17.01 19.44">
  <defs>
    <style>
      .cls-1 {
        fill: #fff;
        stroke-width: 0px;
      }
    </style>
  </defs>
  <g id="Calque_1-2" data-name="Calque 1">
    <path class="cls-1" d="M3.64,19.44c2.01,0,3.64-1.63,3.64-3.64V4.59l7.29-1.82v7.17c-.38-.14-.79-.22-1.21-.22-2.01,0-3.64,1.63-3.64,3.64s1.63,3.64,3.64,3.64,3.64-1.63,3.64-3.64V1.22c0-.37-.17-.73-.47-.96-.3-.23-.68-.31-1.04-.22L5.78,2.47c-.54.14-.92.62-.92,1.18v8.73c-.38-.14-.79-.22-1.21-.22-2.01,0-3.64,1.63-3.64,3.64s1.63,3.64,3.64,3.64ZM13.36,14.58c-.67,0-1.21-.54-1.21-1.21s.54-1.21,1.21-1.21,1.21.54,1.21,1.21-.54,1.21-1.21,1.21ZM3.64,14.58c.67,0,1.21.54,1.21,1.21s-.55,1.21-1.21,1.21-1.21-.54-1.21-1.21.55-1.21,1.21-1.21Z"/>
  </g>
</svg>