<?xml version="1.0" encoding="UTF-8"?>
<svg id="Calque_2" data-name="Calque 2" xmlns="http://www.w3.org/2000/svg" viewBox="0 0 17.01 22.12">
  <defs>
    <style>
      .cls-1 {
        fill: #fff;
        stroke-width: 0px;
      }
    </style>
  </defs>
  <g id="Calque_1-2" data-name="Calque 1">
    <path class="cls-1" d="M8.5,0C4.76,0,1.7,3.06,1.7,6.8v5.95c-.94,0-1.7.76-1.7,1.7v.85c0,.94.76,1.7,1.7,1.7h2.55v4.25c0,.47.37.86.84.86.47,0,.86-.37.86-.84,0,0,0-.02,0-.02v-4.25h5.1v4.25c0,.47.37.86.84.86s.86-.37.86-.84c0,0,0-.02,0-.02v-4.25h2.55c.94,0,1.7-.76,1.7-1.7v-.85c0-.94-.76-1.7-1.7-1.7v-5.95c0-3.75-3.06-6.8-6.8-6.8ZM8.5,1.7c2.83,0,5.1,2.27,5.1,5.1v5.95h-4.25v-3.4c0-.07,0-.15-.03-.22.54-.3.88-.87.88-1.48,0-.94-.76-1.7-1.7-1.7s-1.7.76-1.7,1.7c0,.62.34,1.19.88,1.49-.02.07-.03.14-.02.21v3.4H3.4v-5.95c0-2.83,2.27-5.1,5.1-5.1Z"/>
  </g>
</svg>