<?xml version="1.0" encoding="UTF-8"?>
<svg id="Calque_2" data-name="Calque 2" xmlns="http://www.w3.org/2000/svg" viewBox="0 0 22.68 22.68">
  <defs>
    <style>
      .cls-1 {
        fill: #fff;
        stroke-width: 0px;
      }
    </style>
  </defs>
  <g id="Calque_1-2" data-name="Calque 1">
    <g>
      <path class="cls-1" d="M11.34,0C5.09,0,0,5.09,0,11.34s5.09,11.34,11.34,11.34,11.34-5.09,11.34-11.34S17.59,0,11.34,0ZM11.34,21.93C5.5,21.93.75,17.18.75,11.34S5.5.75,11.34.75s10.59,4.75,10.59,10.59-4.75,10.59-10.59,10.59Z"/>
      <path class="cls-1" d="M11.34,8.47c-1.58,0-2.87,1.29-2.87,2.87s1.29,2.87,2.87,2.87,2.87-1.29,2.87-2.87-1.29-2.87-2.87-2.87ZM11.34,13.46c-1.17,0-2.12-.95-2.12-2.12s.95-2.12,2.12-2.12,2.12.95,2.12,2.12-.95,2.12-2.12,2.12Z"/>
      <path class="cls-1" d="M20.15,10.53s-4.38-1.82-4.39-1.82c-.68-.28-1.42.47-1.13,1.15.4.93.4,2.02,0,2.95-.3.7.42,1.44,1.13,1.15,0,0,4.38-1.82,4.39-1.82.7-.29.7-1.33,0-1.62ZM19.86,11.45s-4.36,1.81-4.39,1.82c-.1.04-.19-.07-.15-.16.49-1.12.49-2.43,0-3.55-.04-.09.05-.21.15-.16,0,0,4.39,1.82,4.39,1.82.09.04.1.19,0,.23Z"/>
      <path class="cls-1" d="M8.04,9.86c.3-.69-.42-1.44-1.13-1.15,0,0-4.39,1.82-4.39,1.82-.68.28-.69,1.33,0,1.62,0,0,4.39,1.82,4.39,1.82.7.29,1.43-.46,1.13-1.15-.4-.93-.4-2.02,0-2.95ZM7.2,13.27s-4.39-1.82-4.39-1.82c-.1-.04-.09-.2,0-.23,0,0,4.39-1.82,4.39-1.82.1-.04.19.08.15.16-.49,1.12-.49,2.43,0,3.55.04.09-.06.2-.15.16Z"/>
      <path class="cls-1" d="M9.86,8.04c.93-.4,2.02-.4,2.95,0,.7.3,1.44-.42,1.15-1.13,0,0-1.82-4.38-1.82-4.39-.29-.7-1.33-.7-1.62,0,0,0-1.82,4.38-1.82,4.39-.28.68.47,1.42,1.15,1.13ZM9.4,7.2s1.82-4.39,1.82-4.39c.04-.09.19-.1.23,0,0,0,1.81,4.36,1.82,4.39.04.1-.07.19-.16.15-1.12-.49-2.43-.49-3.55,0-.09.04-.21-.05-.16-.15Z"/>
      <path class="cls-1" d="M12.81,14.64c-.93.4-2.02.4-2.95,0-.69-.3-1.44.42-1.15,1.13,0,0,1.82,4.39,1.82,4.39.28.68,1.33.69,1.62,0,0,0,1.82-4.39,1.82-4.39.29-.7-.46-1.43-1.15-1.13ZM13.28,15.48s-1.82,4.39-1.82,4.39c-.04.1-.2.09-.23,0,0,0-1.82-4.39-1.82-4.39-.04-.1.08-.19.16-.15,1.12.49,2.43.49,3.55,0,.09-.04.2.06.16.15Z"/>
    </g>
  </g>
</svg>