<?xml version="1.0" encoding="UTF-8"?>
<svg id="Calque_2" data-name="Calque 2" xmlns="http://www.w3.org/2000/svg" viewBox="0 0 36.85 19.41">
  <defs>
    <style>
      .cls-1 {
        fill: #fff;
        stroke-width: 0px;
      }
    </style>
  </defs>
  <g id="Calque_1-2" data-name="Calque 1">
    <path class="cls-1" d="M10.56,6.49h15.46c2.13,0,3.87,1.73,3.87,3.87s-1.73,3.87-3.87,3.87h-15.46c-2.13,0-3.87-1.73-3.87-3.87s1.73-3.87,3.87-3.87ZM9.28,9.06v2.58h2.58v-2.58h-2.58ZM14.43,9.06v2.58h2.58v-2.58h-2.58ZM19.58,9.06v2.58h2.58v-2.58h-2.58ZM24.74,9.06v2.58h2.58v-2.58h-2.58ZM3.42,6.85c.26-2.14,2.26-3.7,4.4-3.43,1.29.16,2.42.94,3.02,2.09.34.65,1.34.13,1-.52-.77-1.48-2.22-2.49-3.88-2.7-2.75-.34-5.33,1.66-5.66,4.41-.21,1.66.42,3.32,1.67,4.42.53.47,1.3-.35.75-.85-.97-.86-1.45-2.14-1.29-3.44ZM1.18,6.57c.2-1.65,1.03-3.11,2.34-4.13,1.31-1.02,2.94-1.47,4.58-1.26,2.03.25,3.8,1.48,4.75,3.3.33.63,1.34.14,1-.52C12.73,1.81,10.63.35,8.24.06c-1.95-.25-3.87.28-5.41,1.49C1.28,2.75.3,4.49.06,6.43c-.3,2.4.6,4.79,2.41,6.39.55.49,1.29-.36.75-.84-1.53-1.36-2.29-3.38-2.04-5.41ZM33.43,6.85c-.26-2.14-2.26-3.7-4.4-3.43-1.29.16-2.42.94-3.02,2.09-.34.65-1.34.13-1-.52.77-1.48,2.22-2.49,3.88-2.7,2.75-.34,5.33,1.66,5.66,4.41.21,1.66-.42,3.32-1.67,4.42-.53.47-1.3-.35-.75-.85.97-.86,1.45-2.14,1.29-3.44ZM35.67,6.57c-.2-1.65-1.03-3.11-2.34-4.13-1.31-1.02-2.94-1.47-4.58-1.26-2.03.25-3.8,1.48-4.75,3.3-.33.63-1.34.14-1-.52C24.12,1.81,26.22.35,28.61.06c1.95-.25,3.87.28,5.41,1.49,1.55,1.2,2.53,2.94,2.77,4.88.3,2.4-.6,4.79-2.41,6.39-.55.49-1.29-.36-.75-.84,1.53-1.36,2.29-3.38,2.04-5.41ZM11.84,18.36c0,.17-.03.31-.09.44-.06.13-.15.24-.26.33s-.24.16-.38.2c-.15.05-.31.07-.48.07-.12,0-.23-.01-.33-.03-.1-.02-.19-.04-.27-.07-.08-.03-.15-.06-.2-.09-.05-.03-.09-.06-.11-.08-.02-.02-.04-.05-.05-.08,0-.03-.02-.08-.02-.14,0-.04,0-.07,0-.1,0-.03,0-.05.02-.06,0-.02.02-.03.03-.03.01,0,.02,0,.04,0,.03,0,.06.02.11.05s.11.06.18.1c.07.04.16.07.27.1.1.03.22.05.36.05.1,0,.2-.01.28-.04.09-.03.16-.07.22-.12.06-.05.11-.11.14-.19.03-.07.05-.16.05-.25,0-.1-.02-.19-.07-.26-.05-.07-.11-.13-.18-.19-.08-.05-.16-.1-.26-.15-.1-.04-.19-.09-.3-.14-.1-.05-.2-.1-.29-.15-.1-.06-.18-.12-.26-.2-.08-.08-.14-.17-.18-.27-.05-.1-.07-.23-.07-.37s.03-.28.08-.4.13-.21.23-.29c.1-.08.21-.14.34-.18s.28-.06.43-.06c.08,0,.16,0,.24.02.08.01.15.03.22.05s.13.05.19.08.09.05.11.07.03.03.03.04c0,0,0,.02.01.04,0,.02,0,.03,0,.06,0,.02,0,.05,0,.09,0,.03,0,.06,0,.09,0,.03,0,.05-.01.06,0,.02-.01.03-.02.04,0,0-.02.01-.03.01-.02,0-.05-.01-.09-.04-.04-.03-.1-.05-.16-.09-.06-.03-.14-.06-.22-.09-.09-.03-.18-.04-.29-.04-.1,0-.19.01-.26.04s-.13.06-.18.11c-.05.04-.08.1-.11.16-.02.06-.04.12-.04.19,0,.1.02.18.07.26.05.07.11.13.18.19.08.05.16.11.26.15.1.05.2.09.3.14.1.05.2.1.3.15.1.06.18.12.26.2.08.08.14.17.18.27.05.1.07.23.07.37ZM14.5,19.16s0,.06,0,.09,0,.05-.02.06-.02.03-.03.04c-.01,0-.03.01-.04.01h-1.71s-.08-.01-.12-.04c-.04-.03-.06-.08-.06-.15v-3.17c0-.07.02-.12.06-.15.04-.03.08-.04.12-.04h1.69s.03,0,.04.01.02.02.03.04.01.04.02.06,0,.06,0,.09c0,.03,0,.06,0,.09s-.01.05-.02.06-.02.03-.03.03-.03.01-.04.01h-1.39v1.11h1.19s.03,0,.04.01.02.02.03.03.01.03.02.06c0,.03,0,.06,0,.09,0,.03,0,.06,0,.08s0,.04-.02.06c0,.02-.02.03-.03.03-.01,0-.03,0-.04,0h-1.19v1.27h1.41s.03,0,.04.01c.01,0,.02.02.03.03s.02.04.02.06,0,.06,0,.09ZM17.95,19.16s0,.07-.02.09-.03.05-.05.06-.04.03-.07.04c-.02,0-.05.01-.07.01h-.16s-.09,0-.13-.02c-.04-.01-.07-.03-.11-.06-.03-.03-.07-.06-.1-.11-.03-.05-.07-.1-.11-.18l-1.08-2.02c-.06-.1-.11-.21-.17-.33-.06-.11-.11-.23-.16-.33h0c0,.13,0,.27,0,.4,0,.14,0,.27,0,.41v2.14s0,.03-.01.04c0,.01-.02.02-.04.03s-.04.01-.07.02c-.03,0-.07,0-.11,0s-.08,0-.11,0c-.03,0-.05-.01-.07-.02-.02,0-.03-.02-.04-.03,0-.01-.01-.02-.01-.04v-3.28c0-.07.02-.12.06-.16.04-.03.09-.05.14-.05h.23c.05,0,.1,0,.14.01.04,0,.07.02.1.05.03.02.06.05.09.09.03.04.06.08.09.14l.83,1.56c.05.1.1.19.15.28s.09.18.14.27c.04.09.09.17.13.26.04.09.09.17.13.26h0c0-.14,0-.29,0-.45s0-.31,0-.45v-1.93s0-.02.01-.04c0-.01.02-.02.04-.03.02,0,.04-.01.07-.02.03,0,.07,0,.12,0,.04,0,.08,0,.11,0,.03,0,.05,0,.07.02s.03.02.04.03c0,.01.01.02.01.04v3.28ZM20.8,18.36c0,.17-.03.31-.09.44-.06.13-.15.24-.26.33s-.24.16-.38.2c-.15.05-.31.07-.48.07-.12,0-.23-.01-.33-.03-.1-.02-.19-.04-.27-.07-.08-.03-.15-.06-.2-.09-.05-.03-.09-.06-.11-.08-.02-.02-.04-.05-.05-.08,0-.03-.02-.08-.02-.14,0-.04,0-.07,0-.1,0-.03,0-.05.02-.06,0-.02.02-.03.03-.03.01,0,.02,0,.04,0,.03,0,.06.02.11.05s.11.06.18.1c.07.04.16.07.27.1.1.03.22.05.36.05.1,0,.2-.01.28-.04.09-.03.16-.07.22-.12.06-.05.11-.11.14-.19.03-.07.05-.16.05-.25,0-.1-.02-.19-.07-.26-.05-.07-.11-.13-.18-.19-.08-.05-.16-.1-.26-.15-.1-.04-.19-.09-.3-.14-.1-.05-.2-.1-.29-.15-.1-.06-.18-.12-.26-.2-.08-.08-.14-.17-.18-.27-.05-.1-.07-.23-.07-.37s.03-.28.08-.4.13-.21.23-.29c.1-.08.21-.14.34-.18s.28-.06.43-.06c.08,0,.16,0,.24.02.08.01.15.03.22.05s.13.05.19.08.09.05.11.07.03.03.03.04c0,0,0,.02.01.04,0,.02,0,.03,0,.06,0,.02,0,.05,0,.09,0,.03,0,.06,0,.09,0,.03,0,.05-.01.06,0,.02-.01.03-.02.04,0,0-.02.01-.03.01-.02,0-.05-.01-.09-.04-.04-.03-.1-.05-.16-.09-.06-.03-.14-.06-.22-.09-.09-.03-.18-.04-.29-.04-.1,0-.19.01-.26.04s-.13.06-.18.11c-.05.04-.08.1-.11.16-.02.06-.04.12-.04.19,0,.1.02.18.07.26.05.07.11.13.18.19.08.05.16.11.26.15.1.05.2.09.3.14.1.05.2.1.3.15.1.06.18.12.26.2.08.08.14.17.18.27.05.1.07.23.07.37ZM24.46,17.54c0,.29-.03.55-.1.78-.07.23-.17.43-.3.59-.13.16-.3.29-.51.37-.2.09-.44.13-.71.13s-.5-.04-.69-.12c-.19-.08-.36-.2-.48-.35-.13-.15-.22-.34-.28-.57s-.09-.48-.09-.78.03-.53.1-.76c.07-.23.17-.42.3-.58.14-.16.3-.28.51-.37.2-.09.44-.13.71-.13s.49.04.68.12c.19.08.36.19.48.34.13.15.22.34.29.56s.09.48.09.76ZM23.96,17.57c0-.2-.02-.39-.05-.56-.04-.17-.1-.32-.18-.45-.08-.13-.19-.23-.33-.3-.14-.07-.31-.11-.52-.11s-.38.04-.52.12c-.14.08-.25.18-.34.31-.09.13-.15.28-.19.45-.04.17-.06.35-.06.54,0,.21.02.4.05.58.03.18.09.33.18.45.08.13.19.23.33.3.14.07.31.11.52.11s.38-.04.52-.12.25-.18.34-.31c.09-.13.15-.28.18-.45s.05-.35.05-.55ZM27.57,19.28s0,.03,0,.04c0,.01-.02.02-.04.03-.02,0-.04.01-.08.02-.03,0-.08,0-.13,0-.05,0-.09,0-.12,0-.03,0-.05,0-.07-.02-.02,0-.03-.02-.04-.03,0-.01-.02-.03-.03-.05l-.33-.84c-.04-.09-.08-.18-.12-.26s-.09-.15-.15-.21c-.06-.06-.12-.1-.2-.13-.08-.03-.17-.05-.28-.05h-.32v1.51s0,.03-.01.04-.02.02-.04.03c-.02,0-.04.01-.07.02-.03,0-.07,0-.11,0s-.08,0-.11,0c-.03,0-.05-.01-.07-.02-.02,0-.03-.02-.04-.03,0-.01-.01-.02-.01-.04v-3.29c0-.07.02-.12.06-.15.04-.03.08-.04.12-.04h.76c.09,0,.16,0,.22,0,.06,0,.11,0,.16.02.14.02.26.06.36.11.11.05.19.12.26.19.07.08.12.17.16.27.04.1.05.21.05.34s-.02.23-.05.32c-.03.09-.08.18-.14.25-.06.07-.13.13-.22.19-.08.05-.18.1-.28.13.06.03.11.06.16.1.05.04.09.09.13.14s.08.12.12.19.07.15.11.24l.32.78c.03.07.04.11.05.14s.01.05.01.06ZM26.86,16.79c0-.14-.03-.26-.09-.35-.06-.1-.17-.17-.31-.21-.05-.01-.1-.02-.16-.03s-.13,0-.23,0h-.4v1.2h.46c.12,0,.23-.02.32-.05.09-.03.17-.07.23-.13.06-.05.1-.12.13-.19.03-.07.04-.15.04-.24Z"/>
  </g>
</svg>