<?xml version="1.0" encoding="UTF-8"?>
<svg id="Calque_2" data-name="Calque 2" xmlns="http://www.w3.org/2000/svg" viewBox="0 0 22.68 19.86">
  <defs>
    <style>
      .cls-1 {
        fill: #fff;
        stroke-width: 0px;
      }
    </style>
  </defs>
  <g id="Calque_1-2" data-name="Calque 1">
    <path class="cls-1" d="M9.92,0C4.45,0,0,4.45,0,9.92c0,4.4,2.88,8.13,6.85,9.43,0-.11-.04-.22-.04-.34v-1.44c-3.02-1.23-5.17-4.19-5.17-7.65C1.65,5.36,5.36,1.65,9.92,1.65c3.38,0,6.29,2.04,7.57,4.96h1.53c.09,0,.17.02.26.03C17.91,2.78,14.24,0,9.92,0ZM9.92,3.31c-3.65,0-6.61,2.97-6.61,6.61,0,2.52,1.43,4.69,3.51,5.81v-1.97c-1.12-.91-1.86-2.28-1.86-3.84,0-2.73,2.23-4.96,4.96-4.96,1.46,0,2.76.65,3.67,1.65h2.02c-1.15-1.97-3.26-3.31-5.69-3.31ZM8.91,8.73v1.14c0,.46.38.83.85.83h1.17c.47,0,.85-.37.85-.83v-1.14c0-.46-.38-.83-.85-.83h-1.17c-.47,0-.85.37-.85.83ZM11.53,19.58s-.02.09-.06.12c-.04.04-.1.07-.19.09-.09.02-.21.04-.36.05s-.34.02-.57.02-.42,0-.57-.02c-.15-.01-.27-.03-.36-.05-.09-.02-.15-.05-.19-.09-.04-.04-.06-.08-.06-.12v-8.23s.02-.09.06-.12c.04-.04.11-.07.2-.09s.21-.04.36-.05.34-.02.57-.02.43,0,.57.02.27.03.36.05c.09.02.15.05.19.09.04.04.06.08.06.12v8.23ZM22.68,19.5c0,.07-.01.12-.04.17-.02.04-.08.08-.17.11s-.22.05-.4.06c-.17.01-.41.02-.71.02-.25,0-.45,0-.6-.02-.15-.01-.27-.03-.35-.07-.09-.03-.15-.07-.18-.13-.04-.05-.07-.11-.09-.18l-1.04-2.59c-.13-.29-.25-.55-.37-.78s-.25-.42-.4-.57-.32-.27-.51-.35c-.19-.08-.41-.12-.66-.12h-.74v4.43c0,.06-.02.11-.06.16s-.1.09-.19.12c-.09.03-.21.05-.36.07s-.34.03-.57.03-.42,0-.57-.03-.27-.04-.36-.07c-.09-.03-.15-.07-.19-.12-.04-.05-.05-.1-.05-.16v-10.55c0-.26.07-.45.2-.57.13-.12.3-.17.5-.17h3.01c.3,0,.56,0,.75.02.2.01.38.03.54.05.47.06.89.18,1.26.34.37.16.69.37.95.63.26.26.46.57.6.92s.21.76.21,1.23c0,.39-.05.74-.15,1.06-.1.32-.24.61-.44.86s-.43.47-.71.66c-.28.19-.6.33-.96.45.17.08.34.19.49.31.15.12.3.26.43.44s.26.36.38.58.24.47.35.74l.98,2.29c.09.23.15.39.18.5.03.11.05.19.05.25ZM19.63,11.62c0-.38-.09-.71-.26-.97-.17-.26-.46-.45-.85-.56-.12-.03-.26-.05-.41-.07-.15-.02-.36-.03-.63-.03h-1.06v3.29h1.2c.33,0,.63-.04.88-.12.25-.08.46-.19.63-.34.17-.15.29-.32.38-.53.08-.2.13-.43.13-.68Z"/>
  </g>
</svg>