<?xml version="1.0" encoding="UTF-8"?>
<svg id="Calque_2" data-name="Calque 2" xmlns="http://www.w3.org/2000/svg" viewBox="0 0 22.68 20.94">
  <defs>
    <style>
      .cls-1 {
        fill: #fff;
        stroke-width: 0px;
      }
    </style>
  </defs>
  <g id="Calque_1-2" data-name="Calque 1">
    <g>
      <path class="cls-1" d="M5.61,0c-1.69,0-3.08,1.39-3.08,3.08v5.07l-1.54,1.54v4.94h1.54v1.54h1.54v-1.54h1.54v-4.94l-1.54-1.54V3.08c0-.86.68-1.54,1.54-1.54s1.54.68,1.54,1.54v10.77c0,1.27,1.04,2.31,2.31,2.31s2.31-1.04,2.31-2.31V2.31c0-.43.33-.77.77-.77s.77.33.77.77v10.77c0,1.69,1.39,3.08,3.08,3.08s3.08-1.39,3.08-3.08v-5.07l1.54-1.54V1.54h-1.54V0h-1.54v1.54h-1.54v4.94l1.54,1.54v5.07c0,.86-.68,1.54-1.54,1.54s-1.54-.68-1.54-1.54V2.31c0-1.27-1.04-2.31-2.31-2.31s-2.31,1.04-2.31,2.31v11.54c0,.43-.33.77-.77.77s-.77-.33-.77-.77V3.08c0-1.69-1.39-3.08-3.08-3.08Z"/>
      <g>
        <path class="cls-1" d="M1.79,17.96s0,.09,0,.13c0,.03-.01.06-.02.08,0,.02-.02.03-.03.04-.01,0-.02.01-.04.01H.65v.86h.98s.03,0,.04.01.02.02.03.04c0,.02.02.05.02.08s0,.07,0,.12,0,.09,0,.12c0,.03-.01.06-.02.08,0,.02-.02.04-.03.05s-.02.01-.04.01h-.98v1.19s0,.03-.01.05c0,.01-.03.02-.05.03s-.06.02-.1.02-.09,0-.16,0-.11,0-.16,0c-.04,0-.08-.01-.1-.02-.02,0-.04-.02-.05-.03-.01-.01-.02-.03-.02-.05v-2.9c0-.07.02-.12.06-.16.04-.03.08-.05.14-.05h1.5s.03,0,.04.01.02.02.03.04c0,.02.02.05.02.08s0,.08,0,.13Z"/>
        <path class="cls-1" d="M5.16,19.25c0,.26-.03.5-.1.71-.07.21-.16.39-.29.53-.13.15-.29.26-.48.33-.19.08-.41.11-.67.11s-.47-.03-.65-.1c-.19-.06-.34-.16-.46-.3s-.22-.3-.28-.51c-.06-.21-.09-.45-.09-.73,0-.26.03-.49.1-.7.07-.21.16-.38.29-.53.13-.14.29-.26.48-.33.19-.08.41-.12.67-.12s.46.03.64.1c.19.06.34.16.46.3.12.13.22.3.28.5.06.2.1.44.1.72ZM4.48,19.29c0-.17-.01-.32-.04-.46-.03-.14-.07-.26-.13-.35s-.15-.17-.25-.23c-.11-.05-.24-.08-.4-.08s-.29.03-.4.09c-.11.06-.19.14-.26.24-.07.1-.11.22-.14.35-.03.13-.04.28-.04.43,0,.17.01.33.04.47.03.14.07.26.13.36s.15.17.25.23c.11.05.24.08.4.08s.29-.03.4-.09.19-.14.26-.24c.07-.1.11-.22.14-.36.03-.14.04-.28.04-.43Z"/>
        <path class="cls-1" d="M7.46,20.62s0,.09,0,.13c0,.03-.01.06-.02.08s-.02.04-.03.05c-.01.01-.03.01-.04.01h-1.46c-.05,0-.1-.02-.14-.05-.04-.03-.06-.08-.06-.16v-2.9s0-.03.02-.04c.01-.01.03-.02.05-.03.02,0,.06-.01.1-.02.04,0,.09,0,.16,0s.12,0,.16,0,.07.01.1.02c.02,0,.04.02.05.03.01.01.02.03.02.04v2.57h1.01s.03,0,.04.01c.01,0,.02.02.03.04s.01.05.02.08c0,.03,0,.08,0,.12Z"/>
        <path class="cls-1" d="M9.6,20.62s0,.09,0,.13c0,.03-.01.06-.02.08s-.02.04-.03.05c-.01.01-.03.01-.04.01h-1.46c-.05,0-.1-.02-.14-.05-.04-.03-.06-.08-.06-.16v-2.9s0-.03.02-.04c.01-.01.03-.02.05-.03.02,0,.06-.01.1-.02.04,0,.09,0,.16,0s.12,0,.16,0,.07.01.1.02c.02,0,.04.02.05.03.01.01.02.03.02.04v2.57h1.01s.03,0,.04.01c.01,0,.02.02.03.04s.01.05.02.08c0,.03,0,.08,0,.12Z"/>
        <path class="cls-1" d="M12.77,19.25c0,.26-.03.5-.1.71-.07.21-.16.39-.29.53-.13.15-.29.26-.48.33-.19.08-.41.11-.67.11s-.47-.03-.65-.1c-.19-.06-.34-.16-.46-.3s-.22-.3-.28-.51c-.06-.21-.09-.45-.09-.73,0-.26.03-.49.1-.7.07-.21.16-.38.29-.53.13-.14.29-.26.48-.33.19-.08.41-.12.67-.12s.46.03.64.1c.19.06.34.16.46.3.12.13.22.3.28.5.06.2.1.44.1.72ZM12.09,19.29c0-.17-.01-.32-.04-.46-.03-.14-.07-.26-.13-.35s-.15-.17-.25-.23c-.11-.05-.24-.08-.4-.08s-.29.03-.4.09c-.11.06-.19.14-.26.24-.07.1-.11.22-.14.35-.03.13-.04.28-.04.43,0,.17.01.33.04.47.03.14.07.26.13.36s.15.17.25.23c.11.05.24.08.4.08s.29-.03.4-.09.19-.14.26-.24c.07-.1.11-.22.14-.36.03-.14.04-.28.04-.43Z"/>
        <path class="cls-1" d="M16.62,20.72s-.02.07-.04.09c-.02.02-.04.04-.08.05-.03.01-.08.02-.13.02-.05,0-.12,0-.21,0-.09,0-.17,0-.23,0-.06,0-.1-.01-.13-.02-.03-.01-.06-.03-.07-.05-.01-.02-.03-.06-.03-.09l-.51-2.03h0l-.48,2.03s-.02.07-.03.09-.04.04-.07.06c-.03.01-.08.02-.13.03-.06,0-.13,0-.22,0-.1,0-.17,0-.23,0-.06,0-.1-.01-.13-.02-.03-.01-.06-.03-.07-.05-.01-.02-.03-.06-.04-.09l-.73-2.79c-.01-.06-.02-.11-.02-.14,0-.03,0-.06.03-.08.02-.02.05-.03.1-.03.05,0,.11,0,.2,0,.08,0,.14,0,.18,0,.05,0,.08,0,.1.02s.04.02.05.04.01.04.02.07l.56,2.45h0l.58-2.43s.02-.06.03-.08.03-.03.05-.05c.03-.01.06-.02.11-.02.04,0,.1,0,.18,0,.08,0,.14,0,.19,0,.05,0,.08.01.11.02.03.01.04.03.06.05.01.02.02.05.03.08l.6,2.43h0l.56-2.44s.01-.05.02-.07c0-.02.02-.03.05-.04.02-.01.06-.02.1-.02.04,0,.1,0,.18,0,.07,0,.13,0,.17,0,.04,0,.07.02.09.03.02.02.03.04.02.08,0,.04-.01.08-.03.14l-.73,2.78Z"/>
        <path class="cls-1" d="M19.73,20.63s0,.09,0,.12-.01.06-.02.08c0,.02-.02.03-.03.04-.01,0-.03.01-.04.01h-1.61c-.05,0-.1-.02-.14-.05-.04-.03-.06-.08-.06-.16v-2.79c0-.07.02-.12.06-.16.04-.03.08-.05.14-.05h1.6s.03,0,.04.01.02.02.03.04c0,.02.01.05.02.08s0,.07,0,.12c0,.05,0,.08,0,.12s-.01.06-.02.08c0,.02-.02.03-.03.04-.01,0-.02.01-.04.01h-1.14v.78h.97s.03,0,.04.01c.01,0,.02.02.03.04,0,.02.01.04.02.08,0,.03,0,.07,0,.12s0,.09,0,.12c0,.03-.01.06-.02.08,0,.02-.02.03-.03.04-.01,0-.03.01-.04.01h-.97v.9h1.15s.03,0,.04.01c.01,0,.02.02.03.04,0,.02.01.05.02.08s0,.07,0,.12Z"/>
        <path class="cls-1" d="M22.68,20.8s0,.03-.01.05c0,.01-.02.02-.05.03s-.06.01-.11.02c-.05,0-.11,0-.2,0-.07,0-.12,0-.17,0-.04,0-.07,0-.1-.02-.02,0-.04-.02-.05-.03,0-.01-.02-.03-.02-.05l-.29-.71c-.03-.08-.07-.15-.1-.21s-.07-.12-.11-.16-.09-.07-.14-.09c-.05-.02-.11-.03-.18-.03h-.2v1.22s0,.03-.02.04-.03.02-.05.03c-.02,0-.06.01-.1.02s-.09,0-.16,0-.11,0-.16,0-.08-.01-.1-.02c-.02,0-.04-.02-.05-.03-.01-.01-.01-.03-.01-.04v-2.9c0-.07.02-.12.06-.16.04-.03.08-.05.14-.05h.83c.08,0,.15,0,.21,0,.05,0,.1,0,.15.01.13.02.24.05.35.09.1.04.19.1.26.17.07.07.13.16.16.25s.06.21.06.34c0,.11-.01.2-.04.29-.03.09-.07.17-.12.24s-.12.13-.2.18c-.08.05-.17.09-.26.12.05.02.09.05.13.08.04.03.08.07.12.12s.07.1.11.16.07.13.1.2l.27.63c.02.06.04.11.05.14,0,.03.01.05.01.07ZM21.84,18.63c0-.11-.02-.19-.07-.27-.05-.07-.13-.12-.23-.15-.03,0-.07-.01-.11-.02-.04,0-.1,0-.17,0h-.29v.91h.33c.09,0,.17-.01.24-.03.07-.02.13-.05.17-.09.05-.04.08-.09.1-.14.02-.06.03-.12.03-.19Z"/>
      </g>
    </g>
  </g>
</svg>