<?xml version="1.0" encoding="UTF-8"?>
<svg id="Calque_2" data-name="Calque 2" xmlns="http://www.w3.org/2000/svg" viewBox="0 0 14.17 20.53">
  <defs>
    <style>
      .cls-1 {
        fill: #fff;
        stroke-width: 0px;
      }
    </style>
  </defs>
  <g id="Calque_1-2" data-name="Calque 1">
    <g>
      <path class="cls-1" d="M7.18,9.52H2.29V2.99c0-1.22,1.1-2.2,2.44-2.2s2.44.99,2.44,2.2v6.53h0ZM7.97,2.99c0-1.65-1.45-2.99-3.23-2.99S1.5,1.34,1.5,2.99v9.28c-.92.87-1.5,2.09-1.5,3.46,0,2.62,2.12,4.75,4.73,4.75s4.73-2.13,4.73-4.75c0-1.37-.58-2.6-1.5-3.46V2.99h0Z"/>
      <path class="cls-1" d="M9.86,3.15h3.92c.22,0,.4-.18.4-.4s-.18-.4-.4-.4h-3.92c-.22,0-.4.18-.4.4s.18.4.4.4h0Z"/>
      <path class="cls-1" d="M13.78,5.55h-3.92c-.22,0-.4.18-.4.4s.18.4.4.4h3.92c.22,0,.4-.18.4-.4s-.18-.4-.4-.4h0Z"/>
      <path class="cls-1" d="M9.86,4.73h2.61c.22,0,.4-.18.4-.4s-.18-.4-.4-.4h-2.61c-.22,0-.4.18-.4.4s.18.4.4.4h0Z"/>
      <path class="cls-1" d="M9.86,7.92h2.61c.22,0,.4-.18.4-.4s-.18-.4-.4-.4h-2.61c-.22,0-.4.18-.4.4s.18.4.4.4h0Z"/>
      <path class="cls-1" d="M13.78,8.68h-3.92c-.22,0-.4.18-.4.4s.18.4.4.4h3.92c.22,0,.4-.18.4-.4s-.18-.4-.4-.4h0Z"/>
      <path class="cls-1" d="M12.47,10.26h-2.61c-.22,0-.4.18-.4.4s.18.4.4.4h2.61c.22,0,.4-.18.4-.4s-.18-.4-.4-.4h0Z"/>
      <path class="cls-1" d="M12.4,18.46h-.56v-4.64c0-.22-.18-.4-.4-.4s-.4.18-.4.4v4.64h-.48c-.22,0-.31.15-.2.34l.92,1.59c.11.19.29.19.4,0l.92-1.59c.11-.19.02-.34-.2-.34h0Z"/>
    </g>
  </g>
</svg>